<svg width="16" height="15" viewBox="0 0 16 15" fill="none" xmlns="http://www.w3.org/2000/svg">
<path d="M1.40358 2.04657L4.32358 4.88657C6.08358 6.59657 8.92358 6.59657 10.6836 4.88657L13.6036 2.04657M6.74999 12.5H4C2.20507 12.5 0.75 11.0449 0.75 9.25V4C0.75 2.20507 2.20507 0.75 4 0.75H11C12.7949 0.75 14.25 2.20507 14.25 4V5.99994" stroke="currentColor" stroke-width="1.5" stroke-linecap="round" stroke-linejoin="round"/>
<path d="M11.8103 10.1897V11.0897C11.8103 11.421 12.079 11.6897 12.4103 11.6897H13.3103M15.25 11.25C15.25 12.9068 13.9068 14.25 12.25 14.25C10.5932 14.25 9.25 12.9068 9.25 11.25C9.25 9.59315 10.5932 8.25 12.25 8.25C13.9068 8.25 15.25 9.59315 15.25 11.25Z" stroke="currentColor" stroke-width="1.2" stroke-linecap="round" stroke-linejoin="round"/>
</svg>
